<svg width="20" height="20" viewBox="0 0 20 20" fill="none" xmlns="http://www.w3.org/2000/svg">
<path d="M7 15.25V16.2574C7 17.053 6.68393 17.8161 6.12132 18.3787L5.5 19H14.5L13.8787 18.3787C13.3161 17.8161 13 17.053 13 16.2574V15.25M19 3.25V13C19 14.2426 17.9926 15.25 16.75 15.25H3.25C2.00736 15.25 1 14.2426 1 13V3.25M19 3.25C19 2.00736 17.9926 1 16.75 1H3.25C2.00736 1 1 2.00736 1 3.25M19 3.25V10C19 11.2426 17.9926 12.25 16.75 12.25H3.25C2.00736 12.25 1 11.2426 1 10V3.25" stroke="#F9322C" stroke-linecap="round" stroke-linejoin="round"/>
</svg>
