<svg width="22" height="18" viewBox="0 0 22 18" fill="none" xmlns="http://www.w3.org/2000/svg">
<path d="M1.25 9.75464V9.00464C1.25 7.762 2.25736 6.75464 3.5 6.75464H18.5C19.7426 6.75464 20.75 7.762 20.75 9.00464V9.75464M12.0607 3.3153L9.93934 1.19398C9.65804 0.912674 9.2765 0.754639 8.87868 0.754639H3.5C2.25736 0.754639 1.25 1.762 1.25 3.00464V15.0046C1.25 16.2473 2.25736 17.2546 3.5 17.2546H18.5C19.7426 17.2546 20.75 16.2473 20.75 15.0046V6.00464C20.75 4.762 19.7426 3.75464 18.5 3.75464H13.1213C12.7235 3.75464 12.342 3.5966 12.0607 3.3153Z" stroke="#F9322C" stroke-linecap="round" stroke-linejoin="round"/>
</svg>
