<svg width="20" height="20" viewBox="0 0 20 20" fill="none" xmlns="http://www.w3.org/2000/svg">
<path d="M7.59353 1.94469C7.68394 1.40223 8.15328 1.00464 8.70322 1.00464H11.2972C11.8471 1.00464 12.3165 1.40223 12.4069 1.94469L12.6204 3.22574C12.6827 3.59978 12.9327 3.91135 13.2645 4.095C13.3386 4.13606 13.412 4.17847 13.4844 4.22221C13.8094 4.41848 14.2048 4.4795 14.5603 4.3463L15.7772 3.89042C16.2922 3.69748 16.8712 3.90515 17.1461 4.38141L18.4431 6.62785C18.7181 7.10412 18.6084 7.70937 18.1839 8.0589L17.1795 8.88571C16.887 9.12652 16.742 9.49836 16.749 9.87717C16.7498 9.91956 16.7502 9.96205 16.7502 10.0046C16.7502 10.0472 16.7498 10.0897 16.749 10.1321C16.742 10.5109 16.887 10.8827 17.1795 11.1235L18.1839 11.9504C18.6084 12.2999 18.7181 12.9051 18.4431 13.3814L17.1461 15.6279C16.8712 16.1041 16.2922 16.3118 15.7772 16.1188L14.5603 15.663C14.2048 15.5298 13.8094 15.5908 13.4844 15.7871C13.412 15.8308 13.3386 15.8732 13.2645 15.9143C12.9327 16.0979 12.6827 16.4095 12.6204 16.7835L12.4069 18.0646C12.3165 18.607 11.8471 19.0046 11.2972 19.0046H8.70322C8.15328 19.0046 7.68394 18.607 7.59353 18.0646L7.38002 16.7835C7.31768 16.4095 7.06771 16.0979 6.73594 15.9143C6.66176 15.8732 6.58844 15.8308 6.51601 15.7871C6.19098 15.5908 5.79565 15.5298 5.44008 15.663L4.22322 16.1189C3.70822 16.3118 3.12923 16.1041 2.85426 15.6279L1.55728 13.3814C1.28231 12.9052 1.39196 12.2999 1.81654 11.9504L2.82089 11.1236C3.1134 10.8828 3.2584 10.5109 3.25138 10.1321C3.2506 10.0897 3.2502 10.0472 3.2502 10.0046C3.2502 9.96206 3.2506 9.91957 3.25138 9.87718C3.2584 9.49837 3.1134 9.12653 2.82089 8.88573L1.81654 8.05891C1.39196 7.70938 1.28231 7.10413 1.55728 6.62787L2.85426 4.38143C3.12923 3.90516 3.70822 3.6975 4.22321 3.89043L5.44007 4.34631C5.79563 4.47951 6.19096 4.41849 6.516 4.22222C6.58843 4.17848 6.66176 4.13606 6.73594 4.095C7.06771 3.91135 7.31768 3.59978 7.38002 3.22574L7.59353 1.94469Z" stroke="#F9322C" stroke-linecap="round" stroke-linejoin="round"/>
<path d="M13 10.0046C13 11.6614 11.6568 13.0046 9.99997 13.0046C8.34312 13.0046 6.99997 11.6614 6.99997 10.0046C6.99997 8.34771 8.34312 7.00456 9.99997 7.00456C11.6568 7.00456 13 8.34771 13 10.0046Z" stroke="#F9322C" stroke-linecap="round" stroke-linejoin="round"/>
</svg>
