<svg width="22" height="22" viewBox="0 0 22 22" fill="none" xmlns="http://www.w3.org/2000/svg">
<path d="M20.75 5.75684C20.75 8.24212 18.7353 10.2568 16.25 10.2568C16.1206 10.2568 15.9925 10.2514 15.8659 10.2407C14.7904 10.1498 13.6016 10.312 12.9155 11.1452L5.76432 19.8287C5.28037 20.4164 4.55897 20.7568 3.79769 20.7568C2.39064 20.7568 1.25 19.6162 1.25 18.2092C1.25 17.4479 1.59044 16.7265 2.1781 16.2425L10.8617 9.09136C11.6948 8.40525 11.8571 7.21639 11.7662 6.14095C11.7555 6.01433 11.75 5.88622 11.75 5.75684C11.75 3.27155 13.7647 1.25684 16.25 1.25684C16.9103 1.25684 17.5375 1.39907 18.1024 1.65457L14.8262 4.9308C15.0823 6.04647 15.9605 6.92469 17.0762 7.1808L20.3524 3.90463C20.6078 4.46951 20.75 5.09657 20.75 5.75684Z" stroke="#F9322C" stroke-linecap="round" stroke-linejoin="round"/>
<path d="M3.86723 18.1319H3.87473V18.1394H3.86723V18.1319Z" stroke="#F9322C" stroke-linecap="round" stroke-linejoin="round"/>
</svg>
